<svg width="30" height="30" viewBox="0 0 30 30" fill="none" xmlns="http://www.w3.org/2000/svg">
<path d="M15 20.99L21 14.99L18.9 12.89L16.5 15.29V8.98999H13.5V15.29L11.1 12.89L9 14.99L15 20.99ZM15 29.99C12.925 29.99 10.975 29.5962 9.15 28.8087C7.325 28.0212 5.7375 26.9525 4.3875 25.6025C3.0375 24.2525 1.96875 22.665 1.18125 20.84C0.39375 19.015 0 17.065 0 14.99C0 12.915 0.39375 10.965 1.18125 9.13999C1.96875 7.31499 3.0375 5.72749 4.3875 4.37749C5.7375 3.02749 7.325 1.95874 9.15 1.17124C10.975 0.38374 12.925 -0.0100098 15 -0.0100098C17.075 -0.0100098 19.025 0.38374 20.85 1.17124C22.675 1.95874 24.2625 3.02749 25.6125 4.37749C26.9625 5.72749 28.0312 7.31499 28.8187 9.13999C29.6062 10.965 30 12.915 30 14.99C30 17.065 29.6062 19.015 28.8187 20.84C28.0312 22.665 26.9625 24.2525 25.6125 25.6025C24.2625 26.9525 22.675 28.0212 20.85 28.8087C19.025 29.5962 17.075 29.99 15 29.99ZM15 26.99C18.35 26.99 21.1875 25.8275 23.5125 23.5025C25.8375 21.1775 27 18.34 27 14.99C27 11.64 25.8375 8.80249 23.5125 6.47749C21.1875 4.15249 18.35 2.98999 15 2.98999C11.65 2.98999 8.8125 4.15249 6.4875 6.47749C4.1625 8.80249 3 11.64 3 14.99C3 18.34 4.1625 21.1775 6.4875 23.5025C8.8125 25.8275 11.65 26.99 15 26.99Z" fill="#1C1B1F"/>
</svg>
