<?xml version="1.0" encoding="UTF-8"?>
<svg id="Layer_1" data-name="Layer 1" xmlns="http://www.w3.org/2000/svg" viewBox="0 0 368 246.8">
  <defs>
    <style>
      .cls-1 {
        fill: #38ff00;
      }

      .cls-2 {
        fill: #ffe000;
      }
    </style>
  </defs>
  <circle class="cls-2" cx="35" cy="21.8" r="12.1"/>
  <circle class="cls-2" cx="18.2" cy="72.7" r="12.1"/>
  <circle class="cls-2" cx="31.1" cy="125.1" r="12.1"/>
  <circle class="cls-2" cx="18.1" cy="174.1" r="12.1"/>
  <circle class="cls-2" cx="34.9" cy="225" r="12.1"/>
  <circle class="cls-2" cx="333.1" cy="225" r="12.1"/>
  <circle class="cls-2" cx="349.9" cy="174.1" r="12.1"/>
  <circle class="cls-2" cx="336.9" cy="122.9" r="12.1"/>
  <circle class="cls-2" cx="349.9" cy="71.7" r="12.1"/>
  <circle class="cls-2" cx="333.1" cy="21.8" r="12.1"/>
  <path d="M296.8,52.2V19.9c0-.2,2.2-2.2,2.7-2.5,4.1-2.1,11.8,0,16.5-1,7.4-21,37.9-14.1,34.9,8.6-2.4,18.5-30.3,20.1-34.9,2h-8.8c0,0,0,31.4,0,31.4,0,.9-3.2,4.1-4.1,4.1h-11.5c3.9,7,7.5,14.4,9.6,22.3h15.6v-13.7c0-5,12.5-2.6,15.6-3.7,7.8-22.9,41.7-12.4,34.6,10.9-5,16.4-29.5,16.5-34,0h-5.9c0,0,0,14.4,0,14.4,0,1-4.5,3.3-5.6,3.3h-16.7l2.9,21.9,11.4.4c8.2-22.8,42.2-12.4,34.8,10.9-5.3,16.9-29.4,15.7-34.8-.6l-11.4.4-2.9,21.9h16.7c1.1,0,5.6,2.3,5.6,3.3v14.5h5.9c4.5-16.7,29-16.6,34-.2,7.1,23.3-26.9,33.8-34.6,10.9-3.1-1-15.6,1.4-15.6-3.7v-13.7h-15.6c-2.1,7.8-5.7,15.2-9.6,22.3h11.5c.9,0,4.1,3.2,4.1,4.1v31.5h8.8c4.5-18.2,32.4-16.6,34.9,1.9,3,22.8-27.7,29.5-34.9,8.6-4.7-.9-12.4,1.2-16.5-1s-2.7-2.3-2.7-2.5v-32.3h-11.5c-48.6,69.6-153.9,69.5-202.5,0h-11.5v32.3c0,.2-2.2,2.2-2.7,2.5-4.1,2.1-11.8,0-16.5,1-7.2,21-37.9,14.2-34.9-8.6,2.4-18.5,30.3-20.1,34.9-2h8.8c0,0,0-31.4,0-31.4,0-.9,3.2-4.1,4.1-4.1h11.5c-4.1-6.9-7.5-14.5-9.6-22.3h-15.6v13c0,.2-1.5,3-1.7,3.1-2.2,2.1-10.8,0-13.9,1.3-8.2,24-43.6,11-34-12.5,6.2-15.1,29.1-14.2,33.4,1.7h5.9c0,0,0-14.4,0-14.4,0-1,4.5-3.3,5.6-3.3h16.7l-2.9-21.9-11.4-.4c-8.2,22.8-42.2,12.4-34.8-10.9s29.4-15.7,34.8.6l11.4-.4,2.9-21.9h-16.7c-1.1,0-5.6-2.3-5.6-3.3v-14.5h-5.9c-4.2,15.9-27.2,16.9-33.4,1.8-9.7-23.5,25.8-36.4,34-12.5,3.8,1.2,15.6-1.9,15.6,4.4v13h15.6c2.2-7.8,5.6-15.3,9.6-22.3h-11.5c-.9,0-4.1-3.2-4.1-4.1v-31.5h-8.8c-4.5,18.2-32.4,16.6-34.9-1.9C14.2,2.2,44.9-4.5,52.1,16.5c4.7.9,12.4-1.2,16.5,1s2.7,2.3,2.7,2.5v32.3h11.5c48.5-69.6,154-69.6,202.5,0h11.5ZM33.3,14.5c-8.8,1.7-7.4,17.2,4.1,14.5s6-16.5-4.1-14.5ZM331.5,14.5c-8.9,1.7-7.6,17.2,4.1,14.5s6.1-16.5-4.1-14.5ZM18.2,65.2c-10.4,0-9.5,15.1,0,15.1,9.4,0,10.2-15.1,0-15.1ZM349.8,65.2c-10.2,0-9.4,15.1,0,15.1s10.4-15.1,0-15.1ZM28.8,116.1c-7.9,1.8-6.7,16.7,4.1,14.5,9.3-1.9,6.7-17-4.1-14.5ZM335.2,116.1c-7.8,1.6-7.5,13.5.6,14.6,11.7,1.6,11.4-17.1-.6-14.6ZM17.7,166.6c-9.3.9-9.3,15,.6,15,10.4,0,9.2-16-.6-15ZM349.3,166.6c-9.3.9-9,15,.6,15,10.8,0,9.2-16-.6-15ZM32.5,217.8c-6.7,1.5-6.7,13.1.8,14.5,11.9,2.3,12.5-17.6-.8-14.5ZM330.7,217.8c-8.2,1.9-6,16.5,4.1,14.5,8.8-1.7,7.4-17.2-4.1-14.5Z"/>
  <g>
    <path class="cls-1" d="M184,8.9c-63.2,0-114.5,51.3-114.5,114.5s51.3,114.5,114.5,114.5,114.5-51.3,114.5-114.5S247.3,8.9,184,8.9ZM267.2,64.1c2.9-2.3,6.6-1.6,7.4,2.4-.5,3-8.4,4.9-8.4.6l1-3ZM231,35c5.2-1.6,8.3,2.4,3.6,6-2.5,1.2-5-.5-6.6-2.3-.3-1.4,1.8-3.3,3-3.7ZM228,61c.9-1.2,1.3-3.3,2.9-3.8,8.3-2.8,6.7,12.4-2.9,3.8ZM217.7,54.5l-1.1,3.6c-3.4.7-8,.5-8.7-3.7,2.8-3.2,7.7-4.4,9.8.1ZM203.8,29.4c2.7-2.7,10.2.9,7,5.4-2.5,3.6-10.6-1.9-7-5.4ZM182.6,55.8c-1.7-1.2-.8-6,1.9-6,2.8-.7,5.1,1.5,6.7,3.5.8,3.5-6.7,3.9-8.7,2.6ZM183.2,30.5c3.1-1,7.4-.3,8,3.6-2.4,4.2-8.6,4.2-11,0-.2-1.5,1.7-3.2,3-3.6ZM176.3,56.1c-4.5.3-5.5-1.2-5-5.7,5.6-1.8,13.5,5.2,5,5.7ZM171.2,30.3c1.4,5.7-5.1,8.4-9.5,5.6l-.3-3.8c2.4-3.9,6.1-2.7,9.8-1.8ZM157.9,54.9c.6.9.2,4.9-1.8,5.5-13.2-1.5-.5-8.8,1.8-5.5ZM139,43.2c.3-2.4,3-4.3,5.3-4.9,4.1-.9,8.2,0,8.2,4.8,0,6.9-14.2,7.1-13.5,0ZM136.3,74l-1.7,2.7c-3.7,1.7-6.5.4-7.6-3.4,1.2-2.5,6.3-4.6,8.4-2.5l.8,3.2ZM133.4,47.1c-.7,5.2-5.6,6.2-10,5.6-1.5-6,5.6-7.4,10-5.6ZM97.8,74.5l5.6.6v3.7c-2.4,2.5-5.9,2.3-7.7-1.1l2.1-3.2ZM93.4,91.8c5.1-1.6,11.2-3,9.9,4.4-5,1.4-10.1,2.4-9.9-4.4ZM107.1,113.9c-3.4.9-5-1.5-7-3.8-.3-1.2.8-2.3,1.8-2.6,5.9-1.9,11.6,4.6,5.1,6.4ZM110.2,67.8c-4.8,1-8.4-8.9-2.6-10.5,6.6-1.9,8.4,9.3,2.6,10.5ZM127.5,125.2c1.7-.5,7.3,1.3,8,2.5,1.3,2.3,0,6.4-2.8,7.4-5.7,2-8.3-9.2-5.2-9.9ZM240.1,102.2c-2.6,22-30.7,18.3-47.1,19.7-3.2.3-8.3.8-5.6,4.5,2.1,2.9,9.2-.3,12.3-.1,8.1.3,17.4,18.8,23.9,24.1,2.7.9,11.1.2,12.2,3.5,2.1,6.3-10.5,12.3-15.4,2-2.1-4.4-1.9-5.9-5.3-10.4-6.7-8.8-18-16.2-21-.2-2.9,15.5,3.4,24.5,6.3,38.6,2.9,14.1-1.4,28.7,17.7,31.4-.1,5-15.5,3.2-17.3-.5-1.6-3.3-1.2-14.8-1.9-19.3-.6-3.8-2.2-8.3-3.1-12.5-1-4.6-6.7-4-6.7,1,0,4.1,3.6,6,4.3,9.2,1.6,7.3-1.7,17.6,4.7,24.4,3.7,3.9,11.7,4.3,14.5,9.5-4,1.1-21.6-5-22.8-7.7,1.3-5-.8-9.3-1.6-14.2-1.5-10.1-5.1-18.3-6.2-27.1-.4-3.2,2.3-7.6-1.2-10.2-4.3-.9-11.4,11.4-13,14.9-1.9,4.1-5,17.7-5.9,18.6-1.2,1.2-9.5,4.3-10.5,3.4.7-5.7,6.8-8.5,9.8-13,3.9-5.9,4.5-14.1,9.1-19.6,1.7-2.1,8.1-5.6,8.7-8.3.6-2.7-3.1-11.2-4-14.6-1.2-4.4,1.1-10.2-5-12.9-5.8-2.5-11.2,5.4-15.3,8.6-2.1,1.6-6.5,2.6-7.8,4.5-2.1,2.9-.3,6.3-1.2,8.9-1.2,3.5-15.9,4.4-12.7-7.2,2.3-8.2,6.9-4.7,13.1-5.8,13.1-2.4,10.6-19.5,22.5-19.9,2.6-.1,11.1,3.6,10.3-1.6-.7-4.4-12.3-.5-15.8-.4-10.6.2-14.1-10.3-20.1-11.3-8.5-1.4-7.7,5.4-9,5.7-1.9.5-7.4-.8-8.1-3-2.1-7.1,15.9-3.2,16.6-6.6l-4.1-7.1c-5.1-2.1-20.2,4.9-18.2-4,1.6-7.2,13.2,4.4,17.8-2.3-2.4-8.2-15.3.5-16.1-8.4,3.5-4.4,6.6-1.5,10.3-.2,1.8.7,1.8,2.3,3.7-.4l-4.4-2.2c6.6-2.2,5.5-5.2,8.4-9.5,1-1.5,4.8-4.3,5-5.1.7-3.2-6.2-2.4-7.3-5-3.6-6.9,15.1-9.4,10.6,2.2,6.5.8,10.9-3.3,17.3-4.3,23.5-3.7,38.6-4.7,59.3,8.3,13.8,8.7,17.5,15.4,15.5,32.2ZM224.8,130.7c-3.9-2.5,1.5-10,5.4-7.2,5.1,3.6-.2,10.5-5.4,7.2ZM210.2,126.9c-.7-3.2,7.6-4.4,8.8-2.7,3.7,5.3-7.7,7.9-8.8,2.7ZM139,121.9c-1.8-6.9,10.5-7.1,10.9-2.8.4,4.9-7.7,4.4-10.9,2.8ZM155.2,127.4c2.6,5.6-3.6,7.4-7,4.3-3.7-3.5,3.6-7.5,7-4.3ZM246.8,68.4c.8.5,1.9,4.7-.5,5.4-7.7,2.4-5-8.9.5-5.4ZM244.2,111.8l7,.2v4.2c.1,0-5.5.6-5.5.6-1.4-.6-3.4-4-1.5-5.1ZM245.8,129.7l.7-4.6c3.1-1.6,5-1.1,7.1,1.8-1.9,2.9-4.5,3.1-7.8,2.8ZM249.2,106.9c1-4.1,6.1-6,8.7-2.2v3.7c-1.2.5-9.5,1.8-8.7-1.5ZM255.8,92.4c-2.2,1.3-4.5-.2-6.6-.7-.4-6.5,3.8-7,8.9-5.5l-2.2,6.2ZM258.8,52.4c-10.1,9.3-14.1-17.6.8-3.1.4.9-.2,2.5-.8,3.1ZM270.2,114.1c-2.3,3.3-14.9-4-1.8-5.5,1.9.5,2.4,4.6,1.8,5.5ZM268.6,94c-4.7-.7-5.3-6.3-.9-7.7,8.5-2.5,8.8,8.8.9,7.7Z"/>
    <path class="cls-1" d="M183.8,93.1c2.4.4,15.2,4.3,16.8,5.2,3.1,1.9.6,7.2.7,10.2h-3.3s-.5-6.8-.5-6.8c-7.2-5.6-15.5,7.3-6.7,9,13.3,2.5,38.7-7.3,28.2-23.8-.8-1.3-1.6-1.9-2.8-2.8-7.8-5.6-31.5-7.8-41-6.9-9.5.9-18.6,7.5-17.2,17.9h6.7s0,4.5,0,4.5c-11.6-4.2-4.6,4.6-.4,7.7,7.2,5.3,19.7,5.4,20.3-6,.5-8.4-16.9-5.4-13,1.5l5.3,4.7c-5.3.3-10.5.8-10-6,.8-10.3,8.7-9.8,16.9-8.3ZM210.9,91.9h4.1c7.2,7.2-11.1,7.6-4.1,0ZM206.8,85.6c-2,4.1-4.4,5.8-8.9,3.9-.9-5,5.7-7.8,8.9-3.9ZM186,81.3l7.5.4c1.1,8.8-14.6,6.2-7.5-.4ZM169.6,82.8c1.2-1,2.9-1.7,4.5-1.7,1.7,0,5.5,1.2,5,3.4-.6,3-12.5,2.4-9.5-1.7ZM160.2,88.9c1.2-2.6,7.5-3.4,8.7-1.5,3.3,4.9-6.9,8.9-8.7,1.5Z"/>
    <path class="cls-1" d="M149.9,76.2c-7.8,5.3-7.4,17.3-2.9,24.9.8,1.3,9.2,11.9,9.9,12.4,5.6,3.4,13.4,2.1,19.4,4,1.6-4.7-5.7-2.6-8.9-3.2-14.1-2.6-23-17.7-14.9-30.7,3.2-5.1,13.1-8.5,19-10,6.7-1.7,24.9-.6,32.1.8,26.9,5.3,33.2,27.8,5.7,38.2-6.3,2.4-13.3,2.1-19.7,3.7-1.9.5-3.2-1.1-2.7,2.3,17.2-.1,58.9.4,47.7-28.4-10.2-26.2-64.7-27.5-84.6-14Z"/>
  </g>
</svg>